<?xml version="1.0" encoding="utf-8"?>
<!-- Generator: Adobe Illustrator 24.1.1, SVG Export Plug-In . SVG Version: 6.00 Build 0)  -->
<svg version="1.1" id="Layer_1" xmlns="http://www.w3.org/2000/svg" xmlns:xlink="http://www.w3.org/1999/xlink" x="0px" y="0px"
	 viewBox="0 0 512 512" style="enable-background:new 0 0 512 512;" xml:space="preserve">
<g>
	<path d="M136.5,221.9h-34.1v-68.3C102.4,68.3,170.7,0,256,0c76.8,0,143.4,58,151.9,134.8l-34.1,3.4c-6.8-59.7-58-104.1-117.8-104.1
		c-66.6,0-119.5,52.9-119.5,119.5V221.9z"/>
	<path d="M392.5,512H119.5c-29,0-51.2-22.2-51.2-51.2V256c0-29,22.2-51.2,51.2-51.2h273.1c29,0,51.2,22.2,51.2,51.2v204.8
		C443.7,489.8,421.5,512,392.5,512z M119.5,238.9c-10.2,0-17.1,6.8-17.1,17.1v204.8c0,10.2,6.8,17.1,17.1,17.1h273.1
		c10.2,0,17.1-6.8,17.1-17.1V256c0-10.2-6.8-17.1-17.1-17.1H119.5z"/>
	<circle cx="256" cy="307.2" r="34.1"/>
	<polygon points="264.5,307.2 247.5,307.2 230.4,409.6 281.6,409.6 	"/>
</g>
</svg>
